<mxfile host="65bd71144e">
    <diagram id="MGLB_HdQlWgpmia0zAKy" name="第 1 页">
        <mxGraphModel dx="822" dy="512" grid="1" gridSize="10" guides="1" tooltips="1" connect="1" arrows="1" fold="1" page="1" pageScale="1" pageWidth="827" pageHeight="1169" math="0" shadow="0">
            <root>
                <mxCell id="0"/>
                <mxCell id="1" parent="0"/>
                <mxCell id="5" style="edgeStyle=none;html=1;exitX=0;exitY=0.5;exitDx=0;exitDy=0;entryX=-0.005;entryY=0.561;entryDx=0;entryDy=0;entryPerimeter=0;" edge="1" parent="1" source="2" target="4">
                    <mxGeometry relative="1" as="geometry">
                        <Array as="points">
                            <mxPoint x="80" y="160"/>
                        </Array>
                    </mxGeometry>
                </mxCell>
                <mxCell id="2" value="amoadd rd, rs1, (rs2)" style="text;html=1;strokeColor=default;fillColor=none;align=left;verticalAlign=middle;whiteSpace=wrap;rounded=0;" vertex="1" parent="1">
                    <mxGeometry x="110" y="50" width="240" height="30" as="geometry"/>
                </mxCell>
                <mxCell id="3" value="指令语义：&lt;br&gt;tmp1 = *rs2&lt;span style=&quot;white-space: pre;&quot;&gt;&#9;&lt;/span&gt;&lt;span style=&quot;white-space: pre;&quot;&gt;&#9;&lt;/span&gt;// 加载rs2旧值&lt;br&gt;tmp2 = tmp1 + rs1&lt;span style=&quot;white-space: pre;&quot;&gt;&#9;&lt;/span&gt;// 旧值加上rs1&lt;br&gt;*rs2 = tmp2&lt;span style=&quot;white-space: pre;&quot;&gt;&#9;&lt;span style=&quot;white-space: pre;&quot;&gt;&#9;&lt;/span&gt;&lt;/span&gt;// 结果写回rs2地址&lt;br&gt;rd = tmp1&lt;span style=&quot;white-space: pre;&quot;&gt;&#9;&lt;/span&gt;&lt;span style=&quot;white-space: pre;&quot;&gt;&#9;&lt;span style=&quot;white-space: pre;&quot;&gt;&#9;&lt;/span&gt;&lt;/span&gt;// 返回旧值" style="text;html=1;strokeColor=default;fillColor=none;align=left;verticalAlign=middle;whiteSpace=wrap;rounded=0;" vertex="1" parent="1">
                    <mxGeometry x="110" y="90" width="240" height="70" as="geometry"/>
                </mxCell>
                <mxCell id="4" value="翻译结果：&lt;br&gt;store t1, t2&lt;span style=&quot;white-space: pre;&quot;&gt;&#9;&lt;/span&gt;// 保存t1, t2 到临时寄存器中&lt;br&gt;lw t1, (rs2)&lt;br&gt;add t2, t1, rs1&lt;br&gt;sw t2, (rs2)&lt;br&gt;move rd, t1&lt;br&gt;restore t1, t2&lt;span style=&quot;white-space: pre;&quot;&gt;&#9;&lt;/span&gt;// 从临时寄存器中恢复t1, t2" style="text;html=1;strokeColor=default;fillColor=none;align=left;verticalAlign=middle;whiteSpace=wrap;rounded=0;" vertex="1" parent="1">
                    <mxGeometry x="110" y="180" width="240" height="100" as="geometry"/>
                </mxCell>
            </root>
        </mxGraphModel>
    </diagram>
</mxfile>